<svg xmlns="http://www.w3.org/2000/svg" width="640" height="480" viewBox="0 0 640 480">
  <defs>
    <style id="current-color-scheme" type="text/css"><![CDATA[
      .ColorScheme-Background { color: #141B21; }
      .ColorScheme-ViewBackground { color: #0E1318; }
      .ColorScheme-ButtonBackground { color: #1A232B; }
      .ColorScheme-Text { color: #E8F0F2; }
      .ColorScheme-Highlight { color: #A3FF47; }
      .ColorScheme-ViewHover { color: #22D3EE; }
      .ColorScheme-ButtonHover { color: #22D3EE; }
      .ColorScheme-ButtonFocus { color: #A3FF47; }
    ]]></style>
  </defs>
  <g id="stopped" transform="translate(0 0)" class="ColorScheme-Text" fill="none" stroke="currentColor" stroke-width="2" stroke-linecap="square" stroke-linejoin="miter"><path d="M12 4a8 8 0 1 0 0 16 8 8 0 1 0 0-16z M8 12h8"/></g>
  <g id="busywidget" transform="translate(32 0)" class="ColorScheme-Text" fill="none" stroke="currentColor" stroke-width="2" stroke-linecap="square" stroke-linejoin="miter"><path d="M12 4a8 8 0 0 0-8 8"/></g>
  <g id="22-22-busywidget" transform="translate(64 0)" class="ColorScheme-Text" fill="none" stroke="currentColor" stroke-width="2" stroke-linecap="square" stroke-linejoin="miter"><path d="M12 4a8 8 0 0 0-8 8"/></g>
  <g id="16-16-busywidget" transform="translate(96 0)" class="ColorScheme-Text" fill="none" stroke="currentColor" stroke-width="2" stroke-linecap="square" stroke-linejoin="miter"><path d="M12 4a8 8 0 0 0-8 8"/></g>
  <g id="hint-rotation-angle" transform="translate(128 0)" class="ColorScheme-Text" fill="none" stroke="currentColor" stroke-width="2" stroke-linecap="square" stroke-linejoin="miter"><path d="M12 12"/></g>
</svg>
