<svg xmlns="http://www.w3.org/2000/svg" width="640" height="480" viewBox="0 0 640 480">
  <defs>
    <style id="current-color-scheme" type="text/css"><![CDATA[
      .ColorScheme-Background { color: #141B21; }
      .ColorScheme-ViewBackground { color: #0E1318; }
      .ColorScheme-ButtonBackground { color: #1A232B; }
      .ColorScheme-Text { color: #E8F0F2; }
      .ColorScheme-Highlight { color: #A3FF47; }
      .ColorScheme-ViewHover { color: #22D3EE; }
      .ColorScheme-ButtonHover { color: #22D3EE; }
      .ColorScheme-ButtonFocus { color: #A3FF47; }
    ]]></style>
  </defs>
  <g id="menu" transform="translate(0 0)" class="ColorScheme-Text" fill="none" stroke="currentColor" stroke-width="2" stroke-linecap="square" stroke-linejoin="miter"><path d="M5 7h14M5 12h14M5 17h14"/></g>
  <g id="configure" transform="translate(32 0)" class="ColorScheme-Text" fill="none" stroke="currentColor" stroke-width="2" stroke-linecap="square" stroke-linejoin="miter"><path d="M12 18a6 6 0 1 0 0-12 6 6 0 1 0 0 12z"/></g>
  <g id="rotate" transform="translate(64 0)" class="ColorScheme-Text" fill="none" stroke="currentColor" stroke-width="2" stroke-linecap="square" stroke-linejoin="miter"><path d="M12 5a7 7 0 0 1 7 7 7 7 0 0 1-7 7 7 7 0 0 1-7-7"/></g>
  <g id="move" transform="translate(96 0)" class="ColorScheme-Text" fill="none" stroke="currentColor" stroke-width="2" stroke-linecap="square" stroke-linejoin="miter"><path d="M12 4v16M4 12h16M12 4l-2 2M12 4l2 2M12 20l-2-2M12 20l2-2M4 12l2-2M4 12l2 2M20 12l-2-2M20 12l-2 2"/></g>
  <g id="size-vertical" transform="translate(128 0)" class="ColorScheme-Text" fill="none" stroke="currentColor" stroke-width="2" stroke-linecap="square" stroke-linejoin="miter"><path d="M12 4v16M12 4l-2 2M12 4l2 2M12 20l-2-2M12 20l2-2"/></g>
  <g id="size-horizontal" transform="translate(160 0)" class="ColorScheme-Text" fill="none" stroke="currentColor" stroke-width="2" stroke-linecap="square" stroke-linejoin="miter"><path d="M4 12h16M4 12l2-2M4 12l2 2M20 12l-2-2M20 12l-2 2"/></g>
  <g id="size-diagonal-tr2bl" transform="translate(192 0)" class="ColorScheme-Text" fill="none" stroke="currentColor" stroke-width="2" stroke-linecap="square" stroke-linejoin="miter"><path d="M18 6L6 18M18 6h-4M18 6v4M6 18h4M6 18v-4"/></g>
  <g id="size-diagonal-tl2br" transform="translate(224 0)" class="ColorScheme-Text" fill="none" stroke="currentColor" stroke-width="2" stroke-linecap="square" stroke-linejoin="miter"><path d="M6 6l12 12M6 6h4M6 6v4M18 18h-4M18 18v-4"/></g>
  <g id="maximize" transform="translate(256 0)" class="ColorScheme-Text" fill="none" stroke="currentColor" stroke-width="2" stroke-linecap="square" stroke-linejoin="miter"><path d="M6 6h12v12H6z"/></g>
  <g id="unmaximize" transform="translate(288 0)" class="ColorScheme-Text" fill="none" stroke="currentColor" stroke-width="2" stroke-linecap="square" stroke-linejoin="miter"><path d="M6 10h8v8H6zM10 6h8v4"/></g>
  <g id="status" transform="translate(320 0)" class="ColorScheme-Text" fill="none" stroke="currentColor" stroke-width="2" stroke-linecap="square" stroke-linejoin="miter"><path d="M12 4a8 8 0 1 0 0 16 8 8 0 1 0 0-16zM12 8v4M12 16v.01"/></g>
  <g id="collapse" transform="translate(352 0)" class="ColorScheme-Text" fill="none" stroke="currentColor" stroke-width="2" stroke-linecap="square" stroke-linejoin="miter"><path d="M6 15l6-6 6 6"/></g>
  <g id="return-to-source" transform="translate(0 32)" class="ColorScheme-Text" fill="none" stroke="currentColor" stroke-width="2" stroke-linecap="square" stroke-linejoin="miter"><path d="M12 4v16M8 8l4-4 4 4"/></g>
  <g id="restore" transform="translate(32 32)" class="ColorScheme-Text" fill="none" stroke="currentColor" stroke-width="2" stroke-linecap="square" stroke-linejoin="miter"><path d="M6 10h8v8H6zM10 6h8v4"/></g>
  <g id="help" transform="translate(64 32)" class="ColorScheme-Text" fill="none" stroke="currentColor" stroke-width="2" stroke-linecap="square" stroke-linejoin="miter"><path d="M12 4a8 8 0 1 0 0 16 8 8 0 1 0 0-16zM12 8a2 2 0 1 1 0 4v1M12 16v.01"/></g>
  <g id="delete" transform="translate(96 32)" class="ColorScheme-Text" fill="none" stroke="currentColor" stroke-width="2" stroke-linecap="square" stroke-linejoin="miter"><path d="M6 6l12 12M18 6L6 18"/></g>
  <g id="add" transform="translate(128 32)" class="ColorScheme-Text" fill="none" stroke="currentColor" stroke-width="2" stroke-linecap="square" stroke-linejoin="miter"><path d="M12 6v12M6 12h12"/></g>
  <g id="remove" transform="translate(160 32)" class="ColorScheme-Text" fill="none" stroke="currentColor" stroke-width="2" stroke-linecap="square" stroke-linejoin="miter"><path d="M6 12h12"/></g>
  <g id="filter" transform="translate(192 32)" class="ColorScheme-Text" fill="none" stroke="currentColor" stroke-width="2" stroke-linecap="square" stroke-linejoin="miter"><path d="M4 6h16l-6 6v6l-4 2v-8L4 6z"/></g>
  <g id="close" transform="translate(224 32)" class="ColorScheme-Text" fill="none" stroke="currentColor" stroke-width="2" stroke-linecap="square" stroke-linejoin="miter"><path d="M6 6l12 12M18 6L6 18"/></g>
  <g id="showbackground" transform="translate(256 32)" class="ColorScheme-Text" fill="none" stroke="currentColor" stroke-width="2" stroke-linecap="square" stroke-linejoin="miter"><path d="M4 12a8 8 0 1 0 16 0 8 8 0 1 0-16 0"/></g>
</svg>
