<svg xmlns="http://www.w3.org/2000/svg" width="640" height="480" viewBox="0 0 640 480">
  <defs>
    <style id="current-color-scheme" type="text/css"><![CDATA[
      .ColorScheme-Background { color: #141B21; }
      .ColorScheme-ViewBackground { color: #0E1318; }
      .ColorScheme-ButtonBackground { color: #1A232B; }
      .ColorScheme-Text { color: #E8F0F2; }
      .ColorScheme-Highlight { color: #A3FF47; }
      .ColorScheme-ViewHover { color: #22D3EE; }
      .ColorScheme-ButtonHover { color: #22D3EE; }
      .ColorScheme-ButtonFocus { color: #A3FF47; }
      .NoxForge-Selected { color: #26361D; }
      .NoxForge-Border { color: #2B3942; }
    ]]></style>
  </defs>
  <path id="base-topleft" d="M6 0V6H0V6A6 6 0 0 1 6 0Z" class="ColorScheme-ViewBackground" fill="currentColor" fill-opacity="0.96"/>
  <rect id="base-top" x="6" y="0" width="12" height="6" class="ColorScheme-ViewBackground" fill="currentColor" fill-opacity="0.96"/>
  <path id="base-topright" d="M18 0A6 6 0 0 1 24 6H18Z" class="ColorScheme-ViewBackground" fill="currentColor" fill-opacity="0.96"/>
  <rect id="base-left" x="0" y="6" width="6" height="12" class="ColorScheme-ViewBackground" fill="currentColor" fill-opacity="0.96"/>
  <rect id="base-center" x="6" y="6" width="12" height="12" class="ColorScheme-ViewBackground" fill="currentColor" fill-opacity="0.96"/>
  <rect id="base-right" x="18" y="6" width="6" height="12" class="ColorScheme-ViewBackground" fill="currentColor" fill-opacity="0.96"/>
  <path id="base-bottomleft" d="M0 18H6V24A6 6 0 0 1 0 18Z" class="ColorScheme-ViewBackground" fill="currentColor" fill-opacity="0.96"/>
  <rect id="base-bottom" x="6" y="18" width="12" height="6" class="ColorScheme-ViewBackground" fill="currentColor" fill-opacity="0.96"/>
  <path id="base-bottomright" d="M18 18H24A6 6 0 0 1 18 24Z" class="ColorScheme-ViewBackground" fill="currentColor" fill-opacity="0.96"/>
  <rect id="base-hint-top-margin" x="0" y="32" width="1" height="4" fill="#000" fill-opacity="0"/>
  <rect id="base-hint-right-margin" x="2" y="32" width="4" height="1" fill="#000" fill-opacity="0"/>
  <rect id="base-hint-bottom-margin" x="9" y="32" width="1" height="4" fill="#000" fill-opacity="0"/>
  <rect id="base-hint-left-margin" x="11" y="32" width="4" height="1" fill="#000" fill-opacity="0"/>
  <rect id="base-hint-top-inset" x="18" y="32" width="1" height="4" fill="#000" fill-opacity="0"/>
  <rect id="base-hint-right-inset" x="20" y="32" width="4" height="1" fill="#000" fill-opacity="0"/>
  <rect id="base-hint-bottom-inset" x="27" y="32" width="1" height="4" fill="#000" fill-opacity="0"/>
  <rect id="base-hint-left-inset" x="29" y="32" width="4" height="1" fill="#000" fill-opacity="0"/>
  <rect id="base-hint-stretch-borders" x="36" y="32" width="1" height="1" fill="#000" fill-opacity="0"/>
  <path id="hover-topleft" d="M46 0V6H40V6A6 6 0 0 1 46 0Z" class="ColorScheme-ViewHover" fill="currentColor" fill-opacity="0.16"/>
  <rect id="hover-top" x="46" y="0" width="12" height="6" class="ColorScheme-ViewHover" fill="currentColor" fill-opacity="0.16"/>
  <path id="hover-topright" d="M58 0A6 6 0 0 1 64 6H58Z" class="ColorScheme-ViewHover" fill="currentColor" fill-opacity="0.16"/>
  <rect id="hover-left" x="40" y="6" width="6" height="12" class="ColorScheme-ViewHover" fill="currentColor" fill-opacity="0.16"/>
  <rect id="hover-center" x="46" y="6" width="12" height="12" class="ColorScheme-ViewHover" fill="currentColor" fill-opacity="0.16"/>
  <rect id="hover-right" x="58" y="6" width="6" height="12" class="ColorScheme-ViewHover" fill="currentColor" fill-opacity="0.16"/>
  <path id="hover-bottomleft" d="M40 18H46V24A6 6 0 0 1 40 18Z" class="ColorScheme-ViewHover" fill="currentColor" fill-opacity="0.16"/>
  <rect id="hover-bottom" x="46" y="18" width="12" height="6" class="ColorScheme-ViewHover" fill="currentColor" fill-opacity="0.16"/>
  <path id="hover-bottomright" d="M58 18H64A6 6 0 0 1 58 24Z" class="ColorScheme-ViewHover" fill="currentColor" fill-opacity="0.16"/>
  <rect id="hover-hint-top-margin" x="40" y="32" width="1" height="4" fill="#000" fill-opacity="0"/>
  <rect id="hover-hint-right-margin" x="42" y="32" width="4" height="1" fill="#000" fill-opacity="0"/>
  <rect id="hover-hint-bottom-margin" x="49" y="32" width="1" height="4" fill="#000" fill-opacity="0"/>
  <rect id="hover-hint-left-margin" x="51" y="32" width="4" height="1" fill="#000" fill-opacity="0"/>
  <rect id="hover-hint-top-inset" x="58" y="32" width="1" height="4" fill="#000" fill-opacity="0"/>
  <rect id="hover-hint-right-inset" x="60" y="32" width="4" height="1" fill="#000" fill-opacity="0"/>
  <rect id="hover-hint-bottom-inset" x="67" y="32" width="1" height="4" fill="#000" fill-opacity="0"/>
  <rect id="hover-hint-left-inset" x="69" y="32" width="4" height="1" fill="#000" fill-opacity="0"/>
  <rect id="hover-hint-stretch-borders" x="76" y="32" width="1" height="1" fill="#000" fill-opacity="0"/>
  <path id="focus-topleft" d="M84 0H86V6H80V4Z" class="NoxForge-Selected" fill="currentColor" fill-opacity="1"/>
  <rect id="focus-top" x="86" y="0" width="12" height="6" class="NoxForge-Selected" fill="currentColor" fill-opacity="1"/>
  <path id="focus-topright" d="M98 0A6 6 0 0 1 104 6H98Z" class="NoxForge-Selected" fill="currentColor" fill-opacity="1"/>
  <g id="focus-left"><rect x="80" y="6" width="6" height="12" class="NoxForge-Selected" fill="currentColor" fill-opacity="1"/><rect x="80" y="7" width="3" height="10" class="ColorScheme-Highlight" fill="currentColor"/></g>
  <rect id="focus-center" x="86" y="6" width="12" height="12" class="NoxForge-Selected" fill="currentColor" fill-opacity="1"/>
  <rect id="focus-right" x="98" y="6" width="6" height="12" class="NoxForge-Selected" fill="currentColor" fill-opacity="1"/>
  <path id="focus-bottomleft" d="M80 18H86V24A6 6 0 0 1 80 18Z" class="NoxForge-Selected" fill="currentColor" fill-opacity="1"/>
  <rect id="focus-bottom" x="86" y="18" width="12" height="6" class="NoxForge-Selected" fill="currentColor" fill-opacity="1"/>
  <path id="focus-bottomright" d="M98 18H104A6 6 0 0 1 98 24Z" class="NoxForge-Selected" fill="currentColor" fill-opacity="1"/>
  <rect id="focus-hint-top-margin" x="80" y="32" width="1" height="4" fill="#000" fill-opacity="0"/>
  <rect id="focus-hint-right-margin" x="82" y="32" width="4" height="1" fill="#000" fill-opacity="0"/>
  <rect id="focus-hint-bottom-margin" x="89" y="32" width="1" height="4" fill="#000" fill-opacity="0"/>
  <rect id="focus-hint-left-margin" x="91" y="32" width="4" height="1" fill="#000" fill-opacity="0"/>
  <rect id="focus-hint-top-inset" x="98" y="32" width="1" height="4" fill="#000" fill-opacity="0"/>
  <rect id="focus-hint-right-inset" x="100" y="32" width="4" height="1" fill="#000" fill-opacity="0"/>
  <rect id="focus-hint-bottom-inset" x="107" y="32" width="1" height="4" fill="#000" fill-opacity="0"/>
  <rect id="focus-hint-left-inset" x="109" y="32" width="4" height="1" fill="#000" fill-opacity="0"/>
  <rect id="focus-hint-stretch-borders" x="116" y="32" width="1" height="1" fill="#000" fill-opacity="0"/>
</svg>
