<svg xmlns="http://www.w3.org/2000/svg" width="640" height="480" viewBox="0 0 640 480">
  <defs>
    <style id="current-color-scheme" type="text/css"><![CDATA[
      .ColorScheme-Background { color: #141B21; }
      .ColorScheme-ViewBackground { color: #0E1318; }
      .ColorScheme-ButtonBackground { color: #1A232B; }
      .ColorScheme-Text { color: #E8F0F2; }
      .ColorScheme-Highlight { color: #A3FF47; }
      .ColorScheme-ViewHover { color: #22D3EE; }
      .ColorScheme-ButtonHover { color: #22D3EE; }
      .ColorScheme-ButtonFocus { color: #A3FF47; }
    ]]></style>
  </defs>
  <g id="yellow-notes" transform="translate(0 0)" class="ColorScheme-Text" fill="none" stroke="currentColor" stroke-width="2" stroke-linecap="square" stroke-linejoin="miter"><path d="M6 6h12v12H6z"/></g>
  <g id="green-notes" transform="translate(32 0)" class="ColorScheme-Text" fill="none" stroke="currentColor" stroke-width="2" stroke-linecap="square" stroke-linejoin="miter"><path d="M6 6h12v12H6z"/></g>
  <g id="red-notes" transform="translate(64 0)" class="ColorScheme-Text" fill="none" stroke="currentColor" stroke-width="2" stroke-linecap="square" stroke-linejoin="miter"><path d="M6 6h12v12H6z"/></g>
  <g id="blue-notes" transform="translate(96 0)" class="ColorScheme-Text" fill="none" stroke="currentColor" stroke-width="2" stroke-linecap="square" stroke-linejoin="miter"><path d="M6 6h12v12H6z"/></g>
  <g id="white-notes" transform="translate(128 0)" class="ColorScheme-Text" fill="none" stroke="currentColor" stroke-width="2" stroke-linecap="square" stroke-linejoin="miter"><path d="M6 6h12v12H6z"/></g>
  <g id="pink-notes" transform="translate(160 0)" class="ColorScheme-Text" fill="none" stroke="currentColor" stroke-width="2" stroke-linecap="square" stroke-linejoin="miter"><path d="M6 6h12v12H6z"/></g>
  <g id="orange-notes" transform="translate(192 0)" class="ColorScheme-Text" fill="none" stroke="currentColor" stroke-width="2" stroke-linecap="square" stroke-linejoin="miter"><path d="M6 6h12v12H6z"/></g>
  <g id="black-notes" transform="translate(224 0)" class="ColorScheme-Text" fill="none" stroke="currentColor" stroke-width="2" stroke-linecap="square" stroke-linejoin="miter"><path d="M6 6h12v12H6z"/></g>
  <g id="transluscent-notes" transform="translate(256 0)" class="ColorScheme-Text" fill="none" stroke="currentColor" stroke-width="2" stroke-linecap="square" stroke-linejoin="miter"><path d="M6 6h12v12H6z"/></g>
</svg>
