<svg xmlns="http://www.w3.org/2000/svg" width="640" height="480" viewBox="0 0 640 480">
  <defs>
    <style id="current-color-scheme" type="text/css"><![CDATA[
      .ColorScheme-Background { color: #141B21; }
      .ColorScheme-ViewBackground { color: #0E1318; }
      .ColorScheme-ButtonBackground { color: #1A232B; }
      .ColorScheme-Text { color: #E8F0F2; }
      .ColorScheme-Highlight { color: #A3FF47; }
      .ColorScheme-ViewHover { color: #22D3EE; }
      .ColorScheme-ButtonHover { color: #22D3EE; }
      .ColorScheme-ButtonFocus { color: #A3FF47; }
    ]]></style>
  </defs>
  <path id="topleft" d="M4 0H6V6H0V4Z" class="ColorScheme-ButtonBackground" fill="currentColor" fill-opacity="0.96"/>
  <rect id="top" x="6" y="0" width="12" height="6" class="ColorScheme-ButtonBackground" fill="currentColor" fill-opacity="0.96"/>
  <path id="topright" d="M18 0A6 6 0 0 1 24 6H18Z" class="ColorScheme-ButtonBackground" fill="currentColor" fill-opacity="0.96"/>
  <rect id="left" x="0" y="6" width="6" height="12" class="ColorScheme-ButtonBackground" fill="currentColor" fill-opacity="0.96"/>
  <rect id="center" x="6" y="6" width="12" height="12" class="ColorScheme-ButtonBackground" fill="currentColor" fill-opacity="0.96"/>
  <rect id="right" x="18" y="6" width="6" height="12" class="ColorScheme-ButtonBackground" fill="currentColor" fill-opacity="0.96"/>
  <path id="bottomleft" d="M0 18H6V24A6 6 0 0 1 0 18Z" class="ColorScheme-ButtonBackground" fill="currentColor" fill-opacity="0.96"/>
  <rect id="bottom" x="6" y="18" width="12" height="6" class="ColorScheme-ButtonBackground" fill="currentColor" fill-opacity="0.96"/>
  <path id="bottomright" d="M18 18H24A6 6 0 0 1 18 24Z" class="ColorScheme-ButtonBackground" fill="currentColor" fill-opacity="0.96"/>
  <rect id="hint-top-margin" x="0" y="32" width="1" height="6" fill="#000" fill-opacity="0"/>
  <rect id="hint-right-margin" x="2" y="32" width="6" height="1" fill="#000" fill-opacity="0"/>
  <rect id="hint-bottom-margin" x="9" y="32" width="1" height="6" fill="#000" fill-opacity="0"/>
  <rect id="hint-left-margin" x="11" y="32" width="6" height="1" fill="#000" fill-opacity="0"/>
  <path id="mask-topleft" d="M44 0H46V6H40V4Z" class="ColorScheme-Text" fill="currentColor" fill-opacity="1"/>
  <rect id="mask-top" x="46" y="0" width="12" height="6" class="ColorScheme-Text" fill="currentColor" fill-opacity="1"/>
  <path id="mask-topright" d="M58 0A6 6 0 0 1 64 6H58Z" class="ColorScheme-Text" fill="currentColor" fill-opacity="1"/>
  <rect id="mask-left" x="40" y="6" width="6" height="12" class="ColorScheme-Text" fill="currentColor" fill-opacity="1"/>
  <rect id="mask-center" x="46" y="6" width="12" height="12" class="ColorScheme-Text" fill="currentColor" fill-opacity="1"/>
  <rect id="mask-right" x="58" y="6" width="6" height="12" class="ColorScheme-Text" fill="currentColor" fill-opacity="1"/>
  <path id="mask-bottomleft" d="M40 18H46V24A6 6 0 0 1 40 18Z" class="ColorScheme-Text" fill="currentColor" fill-opacity="1"/>
  <rect id="mask-bottom" x="46" y="18" width="12" height="6" class="ColorScheme-Text" fill="currentColor" fill-opacity="1"/>
  <path id="mask-bottomright" d="M58 18H64A6 6 0 0 1 58 24Z" class="ColorScheme-Text" fill="currentColor" fill-opacity="1"/>
  <rect id="mask-hint-top-margin" x="40" y="32" width="1" height="6" fill="#000" fill-opacity="0"/>
  <rect id="mask-hint-right-margin" x="42" y="32" width="6" height="1" fill="#000" fill-opacity="0"/>
  <rect id="mask-hint-bottom-margin" x="49" y="32" width="1" height="6" fill="#000" fill-opacity="0"/>
  <rect id="mask-hint-left-margin" x="51" y="32" width="6" height="1" fill="#000" fill-opacity="0"/>
</svg>
