<svg xmlns="http://www.w3.org/2000/svg" width="640" height="480" viewBox="0 0 640 480">
  <defs>
    <style id="current-color-scheme" type="text/css"><![CDATA[
      .ColorScheme-Background { color: #141B21; }
      .ColorScheme-ViewBackground { color: #0E1318; }
      .ColorScheme-ButtonBackground { color: #1A232B; }
      .ColorScheme-Text { color: #E8F0F2; }
      .ColorScheme-Highlight { color: #A3FF47; }
      .ColorScheme-ViewHover { color: #22D3EE; }
      .ColorScheme-ButtonHover { color: #22D3EE; }
      .ColorScheme-ButtonFocus { color: #A3FF47; }
    ]]></style>
  </defs>
  <path id="header-topleft" d="M4 0H6V6H0V4Z" class="ColorScheme-ButtonBackground" fill="currentColor" fill-opacity="0.98"/>
  <rect id="header-top" x="6" y="0" width="12" height="6" class="ColorScheme-ButtonBackground" fill="currentColor" fill-opacity="0.98"/>
  <path id="header-topright" d="M18 0A6 6 0 0 1 24 6H18Z" class="ColorScheme-ButtonBackground" fill="currentColor" fill-opacity="0.98"/>
  <rect id="header-left" x="0" y="6" width="6" height="12" class="ColorScheme-ButtonBackground" fill="currentColor" fill-opacity="0.98"/>
  <rect id="header-center" x="6" y="6" width="12" height="12" class="ColorScheme-ButtonBackground" fill="currentColor" fill-opacity="0.98"/>
  <rect id="header-right" x="18" y="6" width="6" height="12" class="ColorScheme-ButtonBackground" fill="currentColor" fill-opacity="0.98"/>
  <path id="header-bottomleft" d="M0 18H6V24A6 6 0 0 1 0 18Z" class="ColorScheme-ButtonBackground" fill="currentColor" fill-opacity="0.98"/>
  <rect id="header-bottom" x="6" y="18" width="12" height="6" class="ColorScheme-ButtonBackground" fill="currentColor" fill-opacity="0.98"/>
  <path id="header-bottomright" d="M18 18H24A6 6 0 0 1 18 24Z" class="ColorScheme-ButtonBackground" fill="currentColor" fill-opacity="0.98"/>
  <rect id="header-hint-top-margin" x="0" y="32" width="1" height="4" fill="#000" fill-opacity="0"/>
  <rect id="header-hint-right-margin" x="2" y="32" width="4" height="1" fill="#000" fill-opacity="0"/>
  <rect id="header-hint-bottom-margin" x="9" y="32" width="1" height="4" fill="#000" fill-opacity="0"/>
  <rect id="header-hint-left-margin" x="11" y="32" width="4" height="1" fill="#000" fill-opacity="0"/>
  <path id="footer-topleft" d="M46 0V6H40V6A6 6 0 0 1 46 0Z" class="ColorScheme-ButtonBackground" fill="currentColor" fill-opacity="0.98"/>
  <rect id="footer-top" x="46" y="0" width="12" height="6" class="ColorScheme-ButtonBackground" fill="currentColor" fill-opacity="0.98"/>
  <path id="footer-topright" d="M58 0A6 6 0 0 1 64 6H58Z" class="ColorScheme-ButtonBackground" fill="currentColor" fill-opacity="0.98"/>
  <rect id="footer-left" x="40" y="6" width="6" height="12" class="ColorScheme-ButtonBackground" fill="currentColor" fill-opacity="0.98"/>
  <rect id="footer-center" x="46" y="6" width="12" height="12" class="ColorScheme-ButtonBackground" fill="currentColor" fill-opacity="0.98"/>
  <rect id="footer-right" x="58" y="6" width="6" height="12" class="ColorScheme-ButtonBackground" fill="currentColor" fill-opacity="0.98"/>
  <path id="footer-bottomleft" d="M40 18H46V24A6 6 0 0 1 40 18Z" class="ColorScheme-ButtonBackground" fill="currentColor" fill-opacity="0.98"/>
  <rect id="footer-bottom" x="46" y="18" width="12" height="6" class="ColorScheme-ButtonBackground" fill="currentColor" fill-opacity="0.98"/>
  <path id="footer-bottomright" d="M58 18H64A6 6 0 0 1 58 24Z" class="ColorScheme-ButtonBackground" fill="currentColor" fill-opacity="0.98"/>
  <rect id="footer-hint-top-margin" x="40" y="32" width="1" height="4" fill="#000" fill-opacity="0"/>
  <rect id="footer-hint-right-margin" x="42" y="32" width="4" height="1" fill="#000" fill-opacity="0"/>
  <rect id="footer-hint-bottom-margin" x="49" y="32" width="1" height="4" fill="#000" fill-opacity="0"/>
  <rect id="footer-hint-left-margin" x="51" y="32" width="4" height="1" fill="#000" fill-opacity="0"/>
</svg>
