<svg xmlns="http://www.w3.org/2000/svg" width="640" height="480" viewBox="0 0 640 480">
  <defs>
    <style id="current-color-scheme" type="text/css"><![CDATA[
      .ColorScheme-Background { color: #141B21; }
      .ColorScheme-ViewBackground { color: #0E1318; }
      .ColorScheme-ButtonBackground { color: #1A232B; }
      .ColorScheme-Text { color: #E8F0F2; }
      .ColorScheme-Highlight { color: #A3FF47; }
      .ColorScheme-ViewHover { color: #22D3EE; }
      .ColorScheme-ButtonHover { color: #22D3EE; }
      .ColorScheme-ButtonFocus { color: #A3FF47; }
    ]]></style>
  </defs>
  <path id="groove-topleft" d="M6 0V6H0V6A6 6 0 0 1 6 0Z" class="ColorScheme-Text" fill="currentColor" fill-opacity="0.2"/>
  <rect id="groove-top" x="6" y="0" width="12" height="6" class="ColorScheme-Text" fill="currentColor" fill-opacity="0.2"/>
  <path id="groove-topright" d="M18 0A6 6 0 0 1 24 6H18Z" class="ColorScheme-Text" fill="currentColor" fill-opacity="0.2"/>
  <rect id="groove-left" x="0" y="6" width="6" height="12" class="ColorScheme-Text" fill="currentColor" fill-opacity="0.2"/>
  <rect id="groove-center" x="6" y="6" width="12" height="12" class="ColorScheme-Text" fill="currentColor" fill-opacity="0.2"/>
  <rect id="groove-right" x="18" y="6" width="6" height="12" class="ColorScheme-Text" fill="currentColor" fill-opacity="0.2"/>
  <path id="groove-bottomleft" d="M0 18H6V24A6 6 0 0 1 0 18Z" class="ColorScheme-Text" fill="currentColor" fill-opacity="0.2"/>
  <rect id="groove-bottom" x="6" y="18" width="12" height="6" class="ColorScheme-Text" fill="currentColor" fill-opacity="0.2"/>
  <path id="groove-bottomright" d="M18 18H24A6 6 0 0 1 18 24Z" class="ColorScheme-Text" fill="currentColor" fill-opacity="0.2"/>
  <rect id="groove-hint-top-margin" x="0" y="32" width="1" height="4" fill="#000" fill-opacity="0"/>
  <rect id="groove-hint-right-margin" x="2" y="32" width="4" height="1" fill="#000" fill-opacity="0"/>
  <rect id="groove-hint-bottom-margin" x="9" y="32" width="1" height="4" fill="#000" fill-opacity="0"/>
  <rect id="groove-hint-left-margin" x="11" y="32" width="4" height="1" fill="#000" fill-opacity="0"/>
  <path id="groove-highlight-topleft" d="M46 0V6H40V6A6 6 0 0 1 46 0Z" class="ColorScheme-Highlight" fill="currentColor" fill-opacity="0.78"/>
  <rect id="groove-highlight-top" x="46" y="0" width="12" height="6" class="ColorScheme-Highlight" fill="currentColor" fill-opacity="0.78"/>
  <path id="groove-highlight-topright" d="M58 0A6 6 0 0 1 64 6H58Z" class="ColorScheme-Highlight" fill="currentColor" fill-opacity="0.78"/>
  <rect id="groove-highlight-left" x="40" y="6" width="6" height="12" class="ColorScheme-Highlight" fill="currentColor" fill-opacity="0.78"/>
  <rect id="groove-highlight-center" x="46" y="6" width="12" height="12" class="ColorScheme-Highlight" fill="currentColor" fill-opacity="0.78"/>
  <rect id="groove-highlight-right" x="58" y="6" width="6" height="12" class="ColorScheme-Highlight" fill="currentColor" fill-opacity="0.78"/>
  <path id="groove-highlight-bottomleft" d="M40 18H46V24A6 6 0 0 1 40 18Z" class="ColorScheme-Highlight" fill="currentColor" fill-opacity="0.78"/>
  <rect id="groove-highlight-bottom" x="46" y="18" width="12" height="6" class="ColorScheme-Highlight" fill="currentColor" fill-opacity="0.78"/>
  <path id="groove-highlight-bottomright" d="M58 18H64A6 6 0 0 1 58 24Z" class="ColorScheme-Highlight" fill="currentColor" fill-opacity="0.78"/>
  <rect id="groove-highlight-hint-top-margin" x="40" y="32" width="1" height="4" fill="#000" fill-opacity="0"/>
  <rect id="groove-highlight-hint-right-margin" x="42" y="32" width="4" height="1" fill="#000" fill-opacity="0"/>
  <rect id="groove-highlight-hint-bottom-margin" x="49" y="32" width="1" height="4" fill="#000" fill-opacity="0"/>
  <rect id="groove-highlight-hint-left-margin" x="51" y="32" width="4" height="1" fill="#000" fill-opacity="0"/>
<circle id="horizontal-slider-handle" cx="180" cy="180" r="8" class="ColorScheme-Text" fill="currentColor"/><circle id="horizontal-slider-hover" cx="204" cy="180" r="8" class="ColorScheme-Highlight" fill="currentColor"/><circle id="horizontal-slider-focus" cx="228" cy="180" r="8" class="ColorScheme-Highlight" fill="currentColor"/><circle id="vertical-slider-handle" cx="252" cy="180" r="8" class="ColorScheme-Text" fill="currentColor"/><circle id="vertical-slider-hover" cx="276" cy="180" r="8" class="ColorScheme-Highlight" fill="currentColor"/><circle id="vertical-slider-focus" cx="300" cy="180" r="8" class="ColorScheme-Highlight" fill="currentColor"/></svg>
