<svg xmlns="http://www.w3.org/2000/svg" width="640" height="480" viewBox="0 0 640 480">
  <defs>
    <style id="current-color-scheme" type="text/css"><![CDATA[
      .ColorScheme-Background { color: #141B21; }
      .ColorScheme-ViewBackground { color: #0E1318; }
      .ColorScheme-ButtonBackground { color: #1A232B; }
      .ColorScheme-Text { color: #E8F0F2; }
      .ColorScheme-Highlight { color: #A3FF47; }
      .ColorScheme-ViewHover { color: #22D3EE; }
      .ColorScheme-ButtonHover { color: #22D3EE; }
      .ColorScheme-ButtonFocus { color: #A3FF47; }
      .NoxForge-Selected { color: #26361D; }
      .NoxForge-Border { color: #2B3942; }
    ]]></style>
  </defs>
  <path id="inactive-topleft" d="M6 0V6H0V6A6 6 0 0 1 6 0Z" class="ColorScheme-Text" fill="currentColor" fill-opacity="0.18"/>
  <rect id="inactive-top" x="6" y="0" width="12" height="6" class="ColorScheme-Text" fill="currentColor" fill-opacity="0.18"/>
  <path id="inactive-topright" d="M18 0A6 6 0 0 1 24 6H18Z" class="ColorScheme-Text" fill="currentColor" fill-opacity="0.18"/>
  <rect id="inactive-left" x="0" y="6" width="6" height="12" class="ColorScheme-Text" fill="currentColor" fill-opacity="0.18"/>
  <rect id="inactive-center" x="6" y="6" width="12" height="12" class="ColorScheme-Text" fill="currentColor" fill-opacity="0.18"/>
  <rect id="inactive-right" x="18" y="6" width="6" height="12" class="ColorScheme-Text" fill="currentColor" fill-opacity="0.18"/>
  <path id="inactive-bottomleft" d="M0 18H6V24A6 6 0 0 1 0 18Z" class="ColorScheme-Text" fill="currentColor" fill-opacity="0.18"/>
  <rect id="inactive-bottom" x="6" y="18" width="12" height="6" class="ColorScheme-Text" fill="currentColor" fill-opacity="0.18"/>
  <path id="inactive-bottomright" d="M18 18H24A6 6 0 0 1 18 24Z" class="ColorScheme-Text" fill="currentColor" fill-opacity="0.18"/>
  <rect id="inactive-hint-top-margin" x="0" y="32" width="1" height="4" fill="#000" fill-opacity="0"/>
  <rect id="inactive-hint-right-margin" x="2" y="32" width="4" height="1" fill="#000" fill-opacity="0"/>
  <rect id="inactive-hint-bottom-margin" x="9" y="32" width="1" height="4" fill="#000" fill-opacity="0"/>
  <rect id="inactive-hint-left-margin" x="11" y="32" width="4" height="1" fill="#000" fill-opacity="0"/>
  <rect id="inactive-hint-top-inset" x="18" y="32" width="1" height="4" fill="#000" fill-opacity="0"/>
  <rect id="inactive-hint-right-inset" x="20" y="32" width="4" height="1" fill="#000" fill-opacity="0"/>
  <rect id="inactive-hint-bottom-inset" x="27" y="32" width="1" height="4" fill="#000" fill-opacity="0"/>
  <rect id="inactive-hint-left-inset" x="29" y="32" width="4" height="1" fill="#000" fill-opacity="0"/>
  <rect id="inactive-hint-stretch-borders" x="36" y="32" width="1" height="1" fill="#000" fill-opacity="0"/>
  <path id="active-topleft" d="M46 0V6H40V6A6 6 0 0 1 46 0Z" class="ColorScheme-Highlight" fill="currentColor" fill-opacity="0.72"/>
  <rect id="active-top" x="46" y="0" width="12" height="6" class="ColorScheme-Highlight" fill="currentColor" fill-opacity="0.72"/>
  <path id="active-topright" d="M58 0A6 6 0 0 1 64 6H58Z" class="ColorScheme-Highlight" fill="currentColor" fill-opacity="0.72"/>
  <rect id="active-left" x="40" y="6" width="6" height="12" class="ColorScheme-Highlight" fill="currentColor" fill-opacity="0.72"/>
  <rect id="active-center" x="46" y="6" width="12" height="12" class="ColorScheme-Highlight" fill="currentColor" fill-opacity="0.72"/>
  <rect id="active-right" x="58" y="6" width="6" height="12" class="ColorScheme-Highlight" fill="currentColor" fill-opacity="0.72"/>
  <path id="active-bottomleft" d="M40 18H46V24A6 6 0 0 1 40 18Z" class="ColorScheme-Highlight" fill="currentColor" fill-opacity="0.72"/>
  <rect id="active-bottom" x="46" y="18" width="12" height="6" class="ColorScheme-Highlight" fill="currentColor" fill-opacity="0.72"/>
  <path id="active-bottomright" d="M58 18H64A6 6 0 0 1 58 24Z" class="ColorScheme-Highlight" fill="currentColor" fill-opacity="0.72"/>
  <rect id="active-hint-top-margin" x="40" y="32" width="1" height="4" fill="#000" fill-opacity="0"/>
  <rect id="active-hint-right-margin" x="42" y="32" width="4" height="1" fill="#000" fill-opacity="0"/>
  <rect id="active-hint-bottom-margin" x="49" y="32" width="1" height="4" fill="#000" fill-opacity="0"/>
  <rect id="active-hint-left-margin" x="51" y="32" width="4" height="1" fill="#000" fill-opacity="0"/>
  <rect id="active-hint-top-inset" x="58" y="32" width="1" height="4" fill="#000" fill-opacity="0"/>
  <rect id="active-hint-right-inset" x="60" y="32" width="4" height="1" fill="#000" fill-opacity="0"/>
  <rect id="active-hint-bottom-inset" x="67" y="32" width="1" height="4" fill="#000" fill-opacity="0"/>
  <rect id="active-hint-left-inset" x="69" y="32" width="4" height="1" fill="#000" fill-opacity="0"/>
  <rect id="active-hint-stretch-borders" x="76" y="32" width="1" height="1" fill="#000" fill-opacity="0"/>
<rect id="hint-handle-size" x="160" y="160" width="16" height="16" fill="#000" fill-opacity="0"/><circle id="handle" cx="180" cy="180" r="8" class="ColorScheme-Text" fill="currentColor"/><circle id="handle-hover" cx="204" cy="180" r="8" class="ColorScheme-Highlight" fill="currentColor"/><circle id="handle-focus" cx="228" cy="180" r="8" class="ColorScheme-Highlight" fill="currentColor"/><circle id="handle-pressed" cx="252" cy="180" r="7" class="ColorScheme-Highlight" fill="currentColor"/></svg>
