<svg xmlns="http://www.w3.org/2000/svg" width="640" height="480" viewBox="0 0 640 480">
  <defs>
    <style id="current-color-scheme" type="text/css"><![CDATA[
      .ColorScheme-Background { color: #141B21; }
      .ColorScheme-ViewBackground { color: #0E1318; }
      .ColorScheme-ButtonBackground { color: #1A232B; }
      .ColorScheme-Text { color: #E8F0F2; }
      .ColorScheme-Highlight { color: #A3FF47; }
      .ColorScheme-ViewHover { color: #22D3EE; }
      .ColorScheme-ButtonHover { color: #22D3EE; }
      .ColorScheme-ButtonFocus { color: #A3FF47; }
      .NoxForge-Selected { color: #26361D; }
      .NoxForge-Border { color: #2B3942; }
    ]]></style>
  </defs>
  <g id="0" transform="translate(0 0)" class="ColorScheme-Text" fill="none" stroke="currentColor" stroke-width="2" stroke-linecap="square" stroke-linejoin="miter"><path d="M8 6h8v12H8z"/></g>
  <g id="1" transform="translate(32 0)" class="ColorScheme-Text" fill="none" stroke="currentColor" stroke-width="2" stroke-linecap="square" stroke-linejoin="miter"><path d="M12 6v12M10 8l2-2"/></g>
  <g id="2" transform="translate(64 0)" class="ColorScheme-Text" fill="none" stroke="currentColor" stroke-width="2" stroke-linecap="square" stroke-linejoin="miter"><path d="M8 6h8v6H8v6h8"/></g>
  <g id="3" transform="translate(96 0)" class="ColorScheme-Text" fill="none" stroke="currentColor" stroke-width="2" stroke-linecap="square" stroke-linejoin="miter"><path d="M8 6h8v6H8m0 0h8v6H8"/></g>
  <g id="4" transform="translate(128 0)" class="ColorScheme-Text" fill="none" stroke="currentColor" stroke-width="2" stroke-linecap="square" stroke-linejoin="miter"><path d="M8 6v6h8V6m0 6v6"/></g>
  <g id="5" transform="translate(160 0)" class="ColorScheme-Text" fill="none" stroke="currentColor" stroke-width="2" stroke-linecap="square" stroke-linejoin="miter"><path d="M16 6H8v6h8v6H8"/></g>
  <g id="6" transform="translate(192 0)" class="ColorScheme-Text" fill="none" stroke="currentColor" stroke-width="2" stroke-linecap="square" stroke-linejoin="miter"><path d="M16 6H8v12h8v-6H8"/></g>
  <g id="7" transform="translate(224 0)" class="ColorScheme-Text" fill="none" stroke="currentColor" stroke-width="2" stroke-linecap="square" stroke-linejoin="miter"><path d="M8 6h8v12"/></g>
  <g id="8" transform="translate(256 0)" class="ColorScheme-Text" fill="none" stroke="currentColor" stroke-width="2" stroke-linecap="square" stroke-linejoin="miter"><path d="M8 6h8v12H8zM8 12h8"/></g>
  <g id="9" transform="translate(288 0)" class="ColorScheme-Text" fill="none" stroke="currentColor" stroke-width="2" stroke-linecap="square" stroke-linejoin="miter"><path d="M16 18V6H8v6h8"/></g>
  <g id="separator" transform="translate(320 0)" class="ColorScheme-Text" fill="none" stroke="currentColor" stroke-width="2" stroke-linecap="square" stroke-linejoin="miter"><path d="M12 10v.01M12 14v.01"/></g>
  <g id="separatorB" transform="translate(352 0)" class="ColorScheme-Text" fill="none" stroke="currentColor" stroke-width="2" stroke-linecap="square" stroke-linejoin="miter"><path d="M12 10v.01M12 14v.01"/></g>
  <g id="separatorC" transform="translate(0 32)" class="ColorScheme-Text" fill="none" stroke="currentColor" stroke-width="2" stroke-linecap="square" stroke-linejoin="miter"><path d="M12 10v.01M12 14v.01"/></g>
</svg>
